<?xml version="1.0" standalone="no"?>
<!DOCTYPE svg PUBLIC "-//W3C//DTD SVG 20010904//EN"
 "http://www.w3.org/TR/2001/REC-SVG-20010904/DTD/svg10.dtd">
<svg version="1.0" xmlns="http://www.w3.org/2000/svg"
 width="267.000000pt" height="189.000000pt" viewBox="0 0 267.000000 189.000000"
 preserveAspectRatio="xMidYMid meet">

<g transform="translate(0.000000,189.000000) scale(0.100000,-0.100000)"
fill="#000000" stroke="none">
<path d="M0 1798 c1 -86 2 -91 14 -63 21 47 68 85 112 90 21 3 33 2 26 -1 -11
-5 -9 -11 6 -28 10 -11 33 -45 51 -75 30 -49 31 -56 17 -66 -9 -7 -16 -17 -16
-24 0 -15 -17 -14 -24 2 -3 6 -4 3 -3 -8 1 -12 -3 -19 -11 -17 -8 1 -11 -2 -7
-8 9 -15 -25 -39 -45 -33 -10 3 -9 -1 4 -11 12 -10 40 -16 70 -16 28 -1 70 -5
94 -9 23 -5 42 -4 42 0 0 5 5 9 10 9 24 0 7 -20 -25 -29 -33 -9 -56 -8 -140 4
-22 4 -26 2 -15 -5 8 -5 40 -12 70 -15 30 -4 64 -9 75 -11 16 -4 17 -3 5 5
-12 9 -11 11 6 11 12 0 27 7 34 15 16 19 36 19 44 -1 4 -12 1 -14 -13 -9 -11
3 -22 1 -26 -5 -4 -6 -1 -9 7 -8 7 2 12 -5 12 -14 -1 -10 8 -19 22 -22 13 -4
28 -16 35 -27 9 -17 8 -20 -3 -16 -7 2 -12 10 -10 17 2 8 -7 10 -29 5 -21 -5
-29 -4 -25 3 7 11 -15 17 -120 32 -40 5 -84 14 -99 20 -15 6 -30 9 -32 6 -8
-7 156 -57 193 -58 24 -1 38 -8 46 -21 8 -17 8 -19 -5 -14 -10 4 -14 1 -11 -7
3 -8 16 -11 37 -8 29 5 31 3 18 -11 -7 -9 -17 -15 -21 -12 -10 6 -40 -5 -40
-15 0 -4 7 -7 16 -6 9 0 19 -5 22 -13 3 -10 0 -12 -12 -8 -10 4 -15 3 -11 -3
3 -6 14 -10 25 -10 17 0 36 -27 25 -38 -3 -3 -15 0 -28 6 -17 9 -212 52 -236
52 -3 0 3 -6 13 -13 14 -10 17 -21 11 -45 -3 -18 -12 -33 -18 -34 -66 -8 -119
5 -130 34 -3 7 -6 -31 -6 -84 -1 -54 2 -98 7 -98 4 1 26 5 49 9 29 6 44 5 47
-3 3 -7 5 -7 5 2 1 6 10 12 21 12 11 0 20 7 20 15 0 8 5 15 11 15 5 0 7 -5 3
-11 -5 -8 4 -10 29 -7 20 2 34 1 31 -3 -2 -4 0 -11 6 -14 6 -4 9 -1 8 6 -2 8
7 14 23 14 21 1 25 -3 22 -20 -3 -17 -2 -17 9 3 9 18 17 22 36 17 17 -4 22 -2
16 6 -4 7 7 3 25 -7 17 -10 27 -20 21 -22 -6 -2 -17 1 -24 7 -7 6 -16 8 -19 4
-11 -11 -8 -21 7 -25 12 -3 12 -5 0 -16 -12 -11 -14 -10 -14 3 0 9 -6 15 -12
12 -7 -2 -12 -8 -11 -13 1 -5 -20 -10 -45 -10 -26 -1 -58 -4 -72 -7 -14 -3
-40 -6 -58 -6 -24 -1 -31 -5 -26 -13 5 -9 2 -9 -9 1 -9 7 -17 10 -17 5 0 -5
-16 -9 -36 -10 -20 0 -40 -7 -45 -15 -16 -25 -10 -56 11 -62 11 -3 20 -1 20 4
0 5 10 9 23 9 14 0 18 -3 10 -8 -9 -6 -7 -11 7 -20 12 -7 21 -8 25 -2 3 6 11
10 16 10 6 0 8 -4 4 -9 -3 -5 -1 -12 5 -16 5 -3 10 0 10 7 0 10 2 10 9 -1 6
-9 11 -10 15 -2 4 6 19 8 35 5 16 -4 32 -1 35 5 4 6 23 11 42 11 19 0 33 -4
30 -9 -6 -10 28 -21 59 -20 12 0 6 5 -15 12 -45 13 -16 22 46 12 60 -9 103
-46 96 -82 -8 -42 -29 -53 -102 -52 -36 1 -74 -2 -85 -6 -16 -6 -17 -5 -5 4
12 8 7 11 -23 11 -27 0 -36 4 -31 12 5 8 2 9 -10 5 -19 -8 -107 3 -102 12 2 3
-17 7 -42 8 -26 1 -48 7 -50 13 -2 5 -8 7 -14 4 -6 -4 -14 0 -19 7 -5 8 -9
-112 -9 -288 0 -237 3 -302 13 -299 6 1 9 1 4 -1 -28 -16 16 -52 68 -56 19 -1
45 -19 45 -32 0 -10 -51 1 -58 12 -4 6 -21 13 -37 15 l-30 3 -3 -117 -3 -118
122 0 c115 0 123 1 151 25 35 29 52 28 56 -3 5 -35 21 -25 17 11 -3 21 -15 41
-36 59 -29 25 -30 28 -16 48 13 19 15 19 21 3 6 -15 9 -15 17 -3 9 12 10 11 6
-6 -3 -16 0 -21 11 -20 23 4 25 21 6 51 -16 24 -16 27 1 45 9 10 31 22 49 25
17 4 39 9 49 12 16 4 17 2 8 -16 -7 -12 -17 -18 -26 -15 -8 4 -15 1 -15 -5 0
-20 54 -8 62 14 6 19 6 19 7 -2 1 -12 6 -25 12 -28 7 -5 5 -15 -6 -32 -18 -27
-28 -63 -17 -63 4 0 15 12 24 28 12 19 18 22 18 10 0 -9 -5 -20 -10 -23 -6 -3
-10 -20 -10 -37 0 -25 -3 -28 -14 -19 -21 18 -105 -24 -106 -51 0 -5 380 -8
844 -8 l844 0 6 25 c4 14 11 25 16 25 6 0 10 6 10 14 0 15 68 28 76 14 3 -4
17 -8 31 -8 22 0 24 2 13 15 -10 12 -16 13 -26 4 -10 -8 -14 -8 -14 0 0 6 5
11 11 11 5 0 7 5 3 12 -4 7 -3 8 5 4 6 -4 76 -8 155 -9 115 -2 142 1 134 11
-7 8 -41 12 -102 12 -50 0 -109 3 -131 7 l-40 6 30 8 c17 5 32 4 35 -2 7 -11
41 -1 52 15 5 7 8 7 8 -1 0 -20 136 -18 144 2 3 8 27 28 53 45 47 31 47 31 16
27 -18 -2 -30 0 -28 4 3 4 -2 12 -10 19 -8 7 -15 19 -15 27 0 10 -7 14 -20 10
-11 -3 -18 -1 -14 4 3 5 -2 9 -10 9 -9 0 -16 4 -16 8 0 5 -18 18 -40 31 -22
12 -40 25 -40 27 0 3 5 2 10 -1 6 -3 10 -4 10 -1 0 3 -21 19 -47 37 -27 18
-43 26 -36 19 8 -8 9 -20 3 -36 -5 -13 -7 -32 -4 -41 5 -17 5 -17 -9 0 -8 9
-22 17 -31 17 -11 0 -14 5 -10 12 5 8 0 9 -15 5 -17 -4 -20 -3 -11 8 8 9 6 14
-5 19 -9 3 -13 2 -10 -4 8 -13 -1 -13 -26 0 -17 10 -69 81 -69 95 0 3 16 5 35
5 41 0 115 -28 115 -43 0 -6 6 -3 13 7 12 17 18 15 79 -27 36 -25 69 -44 72
-41 3 2 4 1 2 -2 -5 -7 65 -71 125 -113 25 -17 62 -34 82 -38 l37 -6 0 86 0
86 -47 6 c-82 11 -97 26 -20 21 37 -3 67 -2 67 2 0 5 -46 16 -102 26 -57 9
-116 21 -133 26 -27 7 -24 8 22 9 29 1 86 -4 128 -10 75 -11 104 -7 75 11 -10
7 -11 10 -2 10 6 0 12 5 12 10 0 6 -7 10 -15 10 -8 0 -15 5 -15 10 0 6 7 10
15 10 8 0 15 7 15 15 0 11 -11 15 -40 15 -22 0 -40 5 -40 10 0 7 16 9 43 5
l42 -5 -30 25 c-16 14 -38 28 -47 31 -27 8 -22 27 5 19 12 -4 26 -11 31 -16 6
-5 16 -9 23 -9 10 0 13 60 13 299 0 277 -1 300 -17 304 -17 4 -17 5 0 6 16 1
17 17 17 192 0 178 -1 191 -17 184 -10 -4 -23 -8 -30 -8 -10 0 -10 -34 1 -45
7 -6 -20 -32 -34 -32 -6 0 -9 4 -6 8 3 5 7 20 10 35 2 15 14 40 25 56 11 15
17 31 14 35 -4 4 0 4 9 1 34 -13 35 91 2 142 -8 14 -10 24 -4 28 6 3 10 13 10
21 0 10 -13 14 -50 14 -47 0 -63 -11 -39 -26 6 -3 9 -17 6 -30 -2 -13 -1 -24
4 -24 4 0 9 9 11 20 3 18 4 18 15 -5 6 -14 7 -23 2 -20 -5 3 -17 1 -28 -5 -14
-7 -22 -7 -27 2 -4 6 -3 8 2 5 6 -3 11 9 12 26 l1 32 -13 -30 c-8 -19 -10 -36
-5 -47 11 -21 11 -28 1 -28 -5 0 -13 9 -18 20 -9 20 -10 19 -27 -12 l-18 -33
20 24 c23 26 25 24 12 -12 -8 -20 -7 -25 6 -23 9 2 24 13 35 25 l18 23 -2 -25
c-1 -14 -5 -24 -9 -21 -4 2 -10 -3 -13 -12 -4 -10 -14 -14 -25 -11 -13 3 -23
-3 -32 -22 -7 -14 -12 -30 -10 -34 1 -5 -3 -6 -9 -2 -5 3 -10 1 -10 -4 0 -13
-22 -10 -33 4 -5 6 -7 4 -4 -5 2 -8 10 -14 16 -12 17 3 13 -18 -5 -25 -12 -5
-13 -7 -3 -14 8 -5 17 -3 22 4 5 7 5 1 1 -13 -6 -21 -5 -23 8 -13 8 7 18 10
21 6 4 -3 7 -2 7 3 0 6 -5 15 -12 22 -14 14 19 82 41 82 8 0 23 7 33 17 17 15
18 15 18 -10 0 -27 -12 -42 -24 -30 -12 12 -37 12 -33 0 3 -7 9 -11 15 -10 6
2 9 -4 6 -12 -7 -17 7 -20 23 -4 8 8 13 7 18 -2 5 -7 4 -10 -1 -6 -13 7 -47
-20 -40 -32 4 -5 -2 -12 -13 -16 -12 -3 -18 -13 -16 -23 1 -10 -3 -26 -11 -37
-8 -10 -14 -15 -14 -11 0 5 -7 3 -16 -5 -13 -10 -17 -10 -25 2 -12 20 -11 26
7 33 14 5 15 4 5 -8 -7 -8 -8 -17 -4 -19 5 -3 16 8 25 24 10 16 16 29 14 29
-15 0 -66 -24 -66 -31 0 -5 -5 -8 -12 -7 -6 2 -17 -7 -23 -20 -7 -12 -16 -26
-20 -30 -5 -4 -5 -1 -1 6 4 7 1 12 -9 12 -10 0 -14 -5 -9 -12 14 -25 -12 7
-50 61 -21 29 -33 50 -28 47 6 -3 12 1 16 9 3 10 -1 15 -13 15 -19 0 -25 27
-10 46 5 5 8 40 7 77 -1 57 2 70 23 92 28 30 66 55 54 35 -5 -8 -3 -11 6 -8 8
3 13 11 11 17 -1 7 1 10 5 8 5 -2 17 -1 28 4 11 4 -56 8 -155 8 -96 0 -170 -3
-164 -7 6 -4 19 -23 29 -42 17 -34 17 -34 0 -20 -17 14 -17 14 -7 -7 7 -12 17
-25 22 -28 6 -3 10 -11 10 -16 0 -6 -5 -7 -12 -3 -8 5 -9 2 -5 -9 3 -10 2 -17
-4 -17 -6 0 -8 -4 -5 -8 3 -5 -18 -17 -46 -27 -48 -17 -52 -17 -63 -1 -7 9
-16 38 -20 64 -3 26 -11 64 -16 85 l-10 37 -774 0 -774 0 -38 -26 c-21 -14
-40 -29 -43 -34 -9 -15 -70 -24 -70 -11 0 6 -7 11 -15 11 -8 0 -15 5 -15 10 0
6 -6 10 -14 10 -7 0 -16 9 -19 20 -5 18 -14 20 -96 20 l-91 0 0 -92z m2231 29
c-10 -9 -11 -8 -5 6 3 10 9 15 12 12 3 -3 0 -11 -7 -18z m-28 -2 c-3 -9 -8
-14 -10 -11 -3 3 -2 9 2 15 9 16 15 13 8 -4z m-1678 -31 c28 -15 25 -37 -5
-44 -25 -6 -25 -6 -4 -18 11 -6 30 -8 42 -5 20 5 22 1 22 -34 0 -63 -46 -103
-120 -103 -71 1 -85 18 -86 103 -1 66 9 97 32 97 4 0 12 7 19 16 9 14 16 14
33 5 19 -10 22 -9 22 6 1 16 2 16 13 3 7 -8 21 -20 32 -26z m550 -14 c-3 -5
-15 -10 -26 -10 -10 0 -19 5 -19 10 0 6 12 10 26 10 14 0 23 -4 19 -10z m101
-12 c4 -7 3 -8 -4 -4 -7 4 -12 2 -12 -5 0 -7 -3 -10 -6 -6 -6 5 3 27 11 27 2
0 7 -5 11 -12z m1364 -22 c0 -3 -4 -8 -10 -11 -5 -3 -10 -1 -10 4 0 6 5 11 10
11 6 0 10 -2 10 -4z m60 -6 c0 -5 -5 -10 -11 -10 -5 0 -7 5 -4 10 3 6 8 10 11
10 2 0 4 -4 4 -10z m0 -34 c0 -3 -4 -8 -10 -11 -5 -3 -10 -1 -10 4 0 6 5 11
10 11 6 0 10 -2 10 -4z m12 -28 c-7 -7 -12 -8 -12 -2 0 14 12 26 19 19 2 -3
-1 -11 -7 -17z m-1497 2 c3 -5 2 -10 -4 -10 -5 0 -13 5 -16 10 -3 6 -2 10 4
10 5 0 13 -4 16 -10z m947 -22 c-9 -9 -12 -7 -12 12 0 19 3 21 12 12 9 -9 9
-15 0 -24z m533 3 c3 -5 2 -12 -3 -15 -5 -3 -9 1 -9 9 0 17 3 19 12 6z m56
-69 c-7 -2 -18 1 -23 6 -8 8 -4 9 13 5 13 -4 18 -8 10 -11z m-77 0 c3 -5 -1
-9 -9 -9 -8 0 -15 4 -15 9 0 4 4 8 9 8 6 0 12 -4 15 -8z m-544 -16 c0 -3 -4
-8 -10 -11 -5 -3 -10 -1 -10 4 0 6 5 11 10 11 6 0 10 -2 10 -4z m565 -37 c16
-1 17 -2 3 -6 -17 -4 -20 -13 -22 -67 -1 -11 -7 -21 -14 -24 -8 -2 -12 2 -10
9 1 8 -2 14 -7 14 -6 0 -9 -6 -9 -12 2 -16 -12 -17 -21 -3 -5 8 -11 7 -21 -1
-22 -18 -36 2 -17 26 13 17 15 17 10 2 -5 -13 -2 -17 11 -15 24 4 33 20 20 35
-8 10 -7 12 4 8 20 -8 42 20 34 42 -6 15 -5 16 5 6 7 -7 22 -14 34 -14z m-640
-9 c-28 -12 -37 -12 -30 0 3 6 16 10 28 9 21 0 21 -1 2 -9z m55 0 c0 -5 -5
-10 -11 -10 -5 0 -7 5 -4 10 3 6 8 10 11 10 2 0 4 -4 4 -10z m640 6 c0 -3 -4
-8 -10 -11 -5 -3 -10 -1 -10 4 0 6 5 11 10 11 6 0 10 -2 10 -4z m-40 -26 c-12
-8 -12 -10 5 -10 16 0 17 -2 5 -10 -9 -6 -17 -5 -22 3 -12 19 -9 27 10 27 14
0 15 -2 2 -10z m-205 -21 c-3 -15 0 -19 11 -15 9 3 12 2 9 -5 -4 -6 -13 -8
-21 -5 -8 3 -14 1 -14 -5 0 -16 31 -23 41 -8 7 11 9 11 9 -3 0 -9 -6 -19 -12
-22 -7 -3 -3 -3 10 0 12 3 22 1 22 -5 0 -20 -36 -11 -59 13 -15 16 -20 29 -15
38 5 7 9 16 10 21 3 15 4 17 8 17 3 0 3 -9 1 -21z m-1121 -39 c-1 -22 -8 -48
-15 -57 -12 -15 -12 -16 4 -10 10 4 23 7 28 7 5 0 9 7 9 15 0 8 4 15 9 15 5 0
7 -9 4 -20 -4 -14 0 -20 11 -20 9 0 19 -7 22 -15 4 -8 17 -15 30 -15 l24 0
-20 -20 c-11 -11 -24 -20 -30 -20 -5 0 -7 -6 -4 -13 5 -15 34 -19 34 -5 0 11
41 10 60 -2 8 -5 11 -13 6 -17 -5 -4 -11 -2 -13 5 -3 6 -9 12 -15 12 -6 0 -8
-7 -4 -15 3 -8 1 -15 -4 -15 -6 0 -10 8 -10 18 0 11 -3 13 -8 6 -9 -14 -90
-13 -96 1 -3 9 -28 11 -67 6 -4 -1 -10 -11 -14 -23 -4 -13 -8 -26 -10 -30 -1
-5 -3 -16 -4 -25 -2 -17 -2 -17 -12 0 -6 10 -9 21 -6 23 3 3 -5 16 -18 29 -12
14 -22 38 -23 55 -1 24 3 30 21 30 21 1 21 1 4 15 -18 13 -17 14 5 17 13 2 23
10 24 18 1 8 5 25 9 38 6 17 10 20 21 11 11 -9 16 -5 25 15 17 37 25 32 23
-14z m906 24 c0 -8 -4 -12 -10 -9 -5 3 -10 10 -10 16 0 5 5 9 10 9 6 0 10 -7
10 -16z m-100 -80 c0 -8 -4 -12 -10 -9 -5 3 -10 10 -10 16 0 5 5 9 10 9 6 0
10 -7 10 -16z m495 6 c7 -12 -2 -12 -30 0 -19 8 -19 9 2 9 12 1 25 -3 28 -9z
m-1388 -6 c-3 -3 -12 -4 -19 -1 -8 3 -5 6 6 6 11 1 17 -2 13 -5z m918 -4 c3
-5 1 -10 -4 -10 -6 0 -11 5 -11 10 0 6 2 10 4 10 3 0 8 -4 11 -10z m216 -1
c11 -5 16 -15 13 -21 -4 -7 -3 -8 4 -4 35 21 82 -53 72 -113 -6 -41 -42 -66
-106 -77 -38 -6 -44 -3 -78 31 -35 34 -37 40 -31 79 8 47 51 99 77 93 10 -3
17 -2 16 2 -3 23 5 26 33 10z m-261 -19 c0 -5 -2 -10 -4 -10 -3 0 -8 5 -11 10
-3 6 -1 10 4 10 6 0 11 -4 11 -10z m-520 -20 c0 -5 -4 -10 -10 -10 -5 0 -10 5
-10 10 0 6 5 10 10 10 6 0 10 -4 10 -10z m-416 -25 c3 -8 1 -15 -4 -15 -6 0
-10 7 -10 15 0 8 2 15 4 15 2 0 6 -7 10 -15z m-567 -67 c-3 -7 -5 -2 -5 12 0
14 2 19 5 13 2 -7 2 -19 0 -25z m703 9 c0 -8 -7 -14 -15 -14 -11 0 -12 4 -4
14 6 7 13 13 15 13 2 0 4 -6 4 -13z m345 3 c17 -7 15 -9 -10 -8 -16 0 -43 4
-60 8 -29 7 -28 8 10 8 22 0 49 -3 60 -8z m991 -22 c1 -11 -5 -16 -17 -15 -19
1 -25 17 -12 31 11 10 26 2 29 -16z m-2356 3 c0 -12 -20 -25 -27 -18 -7 7 6
27 18 27 5 0 9 -4 9 -9z m310 -21 c0 -5 -7 -10 -16 -10 -8 0 -12 5 -9 10 3 6
10 10 16 10 5 0 9 -4 9 -10z m720 0 c0 -5 -5 -10 -11 -10 -5 0 -7 -4 -4 -10 3
-5 0 -10 -7 -10 -8 0 -14 9 -15 20 -1 14 4 20 18 20 10 0 19 -4 19 -10z
m-1010 -10 c0 -5 -4 -10 -10 -10 -5 0 -10 5 -10 10 0 6 5 10 10 10 6 0 10 -4
10 -10z m2300 -14 c0 -11 -19 -15 -25 -6 -3 5 1 10 9 10 9 0 16 -2 16 -4z
m-1383 -28 c-3 -8 -6 -5 -6 6 -1 11 2 17 5 13 3 -3 4 -12 1 -19z m-1132 2 c-3
-5 -10 -10 -16 -10 -5 0 -9 5 -9 10 0 6 7 10 16 10 8 0 12 -4 9 -10z m240 -30
c3 -5 1 -10 -4 -10 -6 0 -11 5 -11 10 0 6 2 10 4 10 3 0 8 -4 11 -10z m1980
-36 c-11 -8 -19 -17 -17 -19 9 -17 0 -26 -15 -14 -15 13 -15 12 -5 -8 31 -59
32 -62 21 -69 -6 -4 -15 0 -20 7 -4 8 -20 14 -34 14 -26 1 -34 -10 -13 -17 7
-3 6 -7 -5 -11 -13 -5 -17 -1 -17 14 0 20 -52 90 -65 88 -13 -2 -29 9 -24 15
4 4 24 0 45 -9 38 -16 129 -12 119 5 -6 9 12 18 35 19 11 0 10 -4 -5 -15z
m-2015 -79 c-7 -9 -15 -13 -19 -10 -3 3 1 10 9 15 21 14 24 12 10 -5z m-107
-22 c-7 -2 -19 -2 -25 0 -7 3 -2 5 12 5 14 0 19 -2 13 -5z m817 -23 c0 -14
-28 -1 -34 16 -4 12 -2 12 14 4 11 -6 20 -15 20 -20z m-264 -32 c-3 -14 0 -18
10 -14 8 3 14 1 14 -4 0 -6 9 -10 19 -10 18 0 31 -18 31 -42 0 -7 -5 -6 -14 1
-11 9 -15 8 -20 -6 -4 -10 -3 -19 3 -21 15 -5 1 -32 -16 -32 -11 0 -14 -8 -11
-30 4 -29 3 -30 -33 -30 -28 0 -38 -5 -42 -20 -7 -26 -47 -27 -47 -1 0 26 20
40 56 39 41 -1 53 8 47 32 -5 20 -23 28 -23 10 0 -5 -4 -10 -10 -10 -5 0 -10
9 -10 19 0 11 -8 26 -18 33 -20 14 -36 58 -21 58 5 0 9 -3 9 -7 0 -5 14 -8 30
-9 17 -1 30 3 30 7 0 5 -5 8 -12 7 -7 -2 -12 2 -13 9 0 6 -3 15 -7 19 -15 14
-8 21 23 21 25 0 30 -4 25 -19z m-211 2 c-3 -5 -10 -10 -16 -10 -5 0 -9 5 -9
10 0 6 7 10 16 10 8 0 12 -4 9 -10z m479 -5 c-4 -8 -8 -15 -10 -15 -2 0 -4 7
-4 15 0 8 4 15 10 15 5 0 7 -7 4 -15z m69 8 c-7 -2 -21 -2 -30 0 -10 3 -4 5
12 5 17 0 24 -2 18 -5z m70 0 c-7 -2 -19 -2 -25 0 -7 3 -2 5 12 5 14 0 19 -2
13 -5z m52 -43 c28 -31 8 -37 -23 -7 -19 20 -22 27 -11 27 9 0 24 -9 34 -20z
m115 -10 c0 -5 -7 -10 -16 -10 -8 0 -12 5 -9 10 3 6 10 10 16 10 5 0 9 -4 9
-10z m-175 -108 c-4 -4 -10 -1 -12 6 -3 6 -9 10 -14 6 -5 -3 -9 -1 -9 4 0 18
13 21 27 6 9 -8 12 -18 8 -22z m-58 6 c-3 -8 -6 -5 -6 6 -1 11 2 17 5 13 3 -3
4 -12 1 -19z m1318 -8 c3 -5 2 -10 -4 -10 -5 0 -13 5 -16 10 -3 6 -2 10 4 10
5 0 13 -4 16 -10z m-2061 -34 c31 -14 61 -26 66 -26 16 0 11 -64 -6 -88 -9
-13 -14 -32 -11 -42 6 -22 -15 -33 -58 -32 -28 2 -29 1 -8 -9 12 -6 23 -19 26
-28 5 -22 -15 -51 -37 -51 -9 0 -16 -4 -16 -10 0 -5 -7 -10 -15 -10 -21 0 -53
-19 -95 -57 -19 -18 -39 -33 -43 -33 -4 0 -19 11 -32 24 -16 17 -27 20 -34 13
-6 -6 -14 -7 -18 -3 -4 4 0 12 9 17 14 8 15 15 8 35 -19 48 6 77 80 96 36 9
81 17 100 17 34 1 33 2 -28 31 -62 29 -172 123 -172 147 0 6 10 19 23 28 35
26 187 15 261 -19z m471 14 c3 -5 1 -10 -4 -10 -6 0 -11 5 -11 10 0 6 2 10 4
10 3 0 8 -4 11 -10z m406 -9 c-8 -5 -20 -7 -28 -4 -7 3 -21 -1 -31 -8 -15 -13
-16 -12 -3 4 8 10 27 17 45 17 22 0 27 -3 17 -9z m1322 -46 c31 -16 56 -34 54
-40 -5 -14 -78 -22 -104 -11 -26 10 -30 26 -8 26 8 0 15 -4 15 -8 0 -8 58 -8
66 1 3 2 -12 12 -33 21 -69 31 -103 50 -103 58 0 8 25 -3 113 -47z m-1465 34
c-10 -5 -18 -19 -18 -30 0 -11 -4 -18 -9 -15 -4 3 -6 17 -3 31 3 17 11 25 26
25 19 -1 19 -2 4 -11z m-258 -13 c0 -3 -4 -8 -10 -11 -5 -3 -10 -1 -10 4 0 6
5 11 10 11 6 0 10 -2 10 -4z m310 -16 c0 -5 -10 -10 -22 -9 -22 0 -22 1 -3 9
11 5 21 9 23 9 1 1 2 -3 2 -9z m1328 -48 c2 -8 -8 -12 -28 -12 -19 0 -29 4
-25 11 4 6 14 8 22 5 9 -4 11 -2 7 5 -4 7 -1 10 6 7 8 -2 16 -10 18 -16z
m-403 -31 c-3 -6 -11 -11 -17 -11 -6 0 -6 6 2 15 14 17 26 13 15 -4z m35 15
c0 -3 -4 -8 -10 -11 -5 -3 -10 -1 -10 4 0 6 5 11 10 11 6 0 10 -2 10 -4z m380
-16 c0 -5 -8 -10 -17 -10 -15 0 -16 2 -3 10 19 12 20 12 20 0z m60 -6 c0 -2
-9 -4 -20 -4 -11 0 -20 4 -20 9 0 5 9 7 20 4 11 -3 20 -7 20 -9z m-217 -53
c10 -12 9 -13 -10 -2 -16 8 -23 21 -22 39 l0 27 10 -24 c5 -14 15 -32 22 -40z
m272 49 c19 -8 19 -9 -2 -9 -12 -1 -25 4 -28 9 -7 12 2 12 30 0z m70 -10 c7
-12 -2 -12 -30 0 -19 8 -19 9 2 9 12 1 25 -3 28 -9z m-35 -41 c0 -8 -22 -10
-77 -6 -102 9 -105 17 -5 17 55 0 82 -4 82 -11z m-548 -26 c24 -21 23 -38 -4
-63 -24 -22 -58 -26 -76 -8 -17 17 -15 32 9 62 24 30 45 33 71 9z m596 -12 c3
-10 -1 -12 -19 -8 -13 4 -39 7 -56 7 -18 0 -33 4 -33 9 0 16 103 8 108 -8z
m-268 -11 c0 -5 -5 -10 -11 -10 -5 0 -7 5 -4 10 3 6 8 10 11 10 2 0 4 -4 4
-10z m280 -17 c2 -2 -19 -3 -48 -2 -28 2 -52 7 -52 11 0 9 90 0 100 -9z m-250
-7 c0 -2 -7 -7 -16 -10 -8 -3 -12 -2 -9 4 6 10 25 14 25 6z m-1915 -56 c3 -5
1 -10 -4 -10 -6 0 -11 5 -11 10 0 6 2 10 4 10 3 0 8 -4 11 -10z m1995 2 c0 -5
-7 -9 -15 -9 -8 0 -12 4 -9 9 3 4 9 8 15 8 5 0 9 -4 9 -8z m55 -2 c3 -5 -1
-10 -10 -10 -9 0 -13 5 -10 10 3 6 8 10 10 10 2 0 7 -4 10 -10z m-2135 -25 c0
-9 -8 -18 -17 -22 -10 -3 -25 -12 -33 -18 -18 -15 -65 -27 -73 -19 -12 12 57
59 72 49 5 -2 14 2 21 10 16 19 30 19 30 0z m1763 -32 c-7 -2 -21 -2 -30 0
-10 3 -4 5 12 5 17 0 24 -2 18 -5z m197 -19 c0 -2 -9 0 -20 6 -11 6 -20 13
-20 16 0 2 9 0 20 -6 11 -6 20 -13 20 -16z m-91 -44 c9 -5 55 -18 104 -31 95
-24 151 -54 87 -46 -47 6 -148 35 -184 53 -16 7 -37 14 -46 14 -9 0 -25 7 -36
16 -18 14 -17 15 20 9 21 -4 46 -10 55 -15z m-36 -35 c31 -6 37 -25 7 -25 -11
0 -20 5 -20 10 0 6 -9 10 -20 10 -11 0 -20 -5 -20 -11 0 -5 -5 -7 -10 -4 -6 4
-8 11 -5 16 4 5 -1 9 -9 9 -9 0 -16 4 -16 9 0 5 13 6 33 0 17 -4 44 -11 60
-14z m78 -27 c23 -25 24 -35 4 -35 -8 0 -12 4 -9 9 3 5 -2 18 -12 29 -9 10
-14 19 -9 19 4 0 16 -10 26 -22z m-27 -25 c4 -10 4 -14 0 -11 -3 4 -13 1 -21
-7 -8 -8 -24 -15 -36 -15 -11 0 -31 -10 -44 -22 -13 -12 -23 -17 -23 -11 0 6
7 14 16 17 8 3 12 10 9 16 -4 6 6 10 22 10 34 0 71 20 38 20 -17 0 -17 2 -5
10 22 14 37 12 44 -7z m-1958 -25 c5 -7 3 -8 -5 -3 -8 4 -6 -3 4 -18 16 -25
16 -25 -10 -23 -14 2 -24 -1 -23 -8 4 -18 -22 -56 -38 -56 -8 0 -12 -4 -9 -10
8 -12 -5 -13 -25 0 -12 7 -12 12 -1 34 8 14 18 23 23 20 11 -7 59 36 53 47 -3
4 -17 6 -32 4 -25 -3 -26 -2 -8 11 23 17 61 18 71 2z m1814 2 c0 -5 -8 -10
-17 -10 -15 0 -16 2 -3 10 19 12 20 12 20 0z m235 -10 c18 -8 17 -9 -7 -9 -15
-1 -30 4 -33 9 -7 12 12 12 40 0z m72 -31 c19 -12 32 -23 30 -26 -5 -4 -77 36
-77 43 0 8 14 3 47 -17z m-67 7 c0 -7 -40 -14 -44 -7 -3 4 6 8 20 9 13 1 24 0
24 -2z m-240 -21 c5 3 11 1 15 -5 4 -6 -5 -10 -19 -10 -20 0 -24 4 -19 17 4
11 8 13 11 5 2 -7 8 -10 12 -7z m40 -40 c0 -9 -50 -10 -53 0 -3 7 5 10 24 7
16 -2 29 -5 29 -7z m-2005 -54 c-12 -12 -65 -25 -65 -17 0 8 39 24 60 25 9 1
10 -2 5 -8z m365 -51 c0 -5 -4 -10 -10 -10 -5 0 -10 5 -10 10 0 6 5 10 10 10
6 0 10 -4 10 -10z"/>
<path d="M480 1735 c0 -2 4 -15 9 -29 7 -17 7 -26 -2 -30 -7 -2 -2 -5 11 -5
12 -1 22 3 22 8 0 5 10 7 22 3 l22 -5 -21 22 c-13 14 -26 20 -34 16 -7 -5 -10
-4 -6 2 4 6 0 13 -8 17 -8 3 -15 4 -15 1z"/>
<path d="M460 1713 c0 -13 5 -23 10 -23 13 0 13 11 0 30 -8 12 -10 11 -10 -7z"/>
<path d="M2550 1505 c-8 -9 -8 -15 -2 -15 12 0 26 19 19 26 -2 2 -10 -2 -17
-11z"/>
<path d="M1195 1300 c-3 -5 -1 -10 4 -10 6 0 11 5 11 10 0 6 -2 10 -4 10 -3 0
-8 -4 -11 -10z"/>
<path d="M1185 1270 c-3 -5 -1 -10 4 -10 6 0 11 5 11 10 0 6 -2 10 -4 10 -3 0
-8 -4 -11 -10z"/>
<path d="M303 1856 c0 -17 1 -24 4 -16 3 8 9 22 14 31 5 10 4 16 -4 16 -7 0
-13 -14 -14 -31z"/>
<path d="M2475 1879 c-11 -17 -2 -18 19 -3 17 12 17 14 4 14 -9 0 -20 -5 -23
-11z"/>
<path d="M2503 1865 c-12 -12 -28 -25 -35 -28 -7 -2 -9 -8 -5 -13 4 -5 12 -2
17 6 7 10 10 11 10 3 0 -7 5 -13 10 -13 6 0 10 6 10 14 0 7 7 19 15 26 16 13
20 30 8 29 -5 0 -18 -11 -30 -24z"/>
<path d="M2520 1840 c0 -5 5 -10 10 -10 6 0 10 5 10 10 0 6 -4 10 -10 10 -5 0
-10 -4 -10 -10z"/>
<path d="M2319 1827 c5 -5 7 -16 4 -23 -3 -8 0 -14 6 -14 6 0 10 11 9 23 -1
13 -8 24 -15 24 -9 0 -10 -4 -4 -10z"/>
<path d="M2393 1823 c-3 -10 -8 -22 -11 -27 -3 -5 0 -6 5 -3 11 7 25 47 17 47
-3 0 -7 -8 -11 -17z"/>
<path d="M2436 1825 c-3 -9 -9 -14 -14 -11 -4 2 -6 -12 -3 -32 4 -27 6 -31 9
-14 2 12 7 20 12 17 4 -3 10 2 13 10 4 10 1 12 -11 8 -15 -6 -15 -5 -3 10 8
10 12 20 9 23 -3 3 -8 -2 -12 -11z"/>
<path d="M2356 1793 c-6 -14 -5 -15 5 -6 7 7 10 15 7 18 -3 3 -9 -2 -12 -12z"/>
<path d="M2360 1770 c-4 -12 -8 -54 -4 -43 3 7 12 9 20 6 8 -3 14 0 14 7 0 6
-4 9 -9 5 -5 -3 -12 3 -14 12 -3 10 -6 16 -7 13z"/>
<path d="M2292 1730 c-18 -29 -15 -38 4 -12 9 13 14 25 12 27 -2 2 -9 -5 -16
-15z"/>
<path d="M2401 1745 c1 -19 18 -51 18 -35 1 13 2 13 11 0 7 -12 9 -10 7 7 0
12 -5 19 -10 16 -5 -3 -13 1 -18 8 -5 8 -8 10 -8 4z"/>
<path d="M70 1711 c0 -5 10 -17 23 -27 15 -11 16 -15 5 -11 -10 4 -18 2 -18
-3 0 -6 9 -10 20 -10 13 0 18 -5 14 -15 -4 -8 -1 -15 6 -15 6 0 9 4 5 9 -3 5
0 13 6 16 5 4 8 13 5 20 -3 8 0 16 7 19 7 4 2 4 -10 2 -12 -2 -31 3 -42 11
-12 8 -21 10 -21 4z"/>
<path d="M105 1710 c3 -5 8 -10 11 -10 2 0 4 5 4 10 0 6 -5 10 -11 10 -5 0 -7
-4 -4 -10z"/>
<path d="M2310 1711 c0 -6 4 -13 10 -16 6 -3 7 1 4 9 -7 18 -14 21 -14 7z"/>
<path d="M2366 1704 c-10 -25 1 -29 14 -5 6 12 7 21 1 21 -5 0 -12 -7 -15 -16z"/>
<path d="M1 1653 c-1 -47 1 -53 20 -53 12 0 18 4 13 11 -4 7 -13 30 -20 53
l-13 41 0 -52z"/>
<path d="M2435 1680 c-7 -12 2 -30 15 -30 5 0 15 10 21 23 l12 22 -22 -19
c-18 -17 -21 -17 -15 -3 7 18 -1 23 -11 7z"/>
<path d="M2400 1669 c0 -5 5 -7 10 -4 6 3 10 8 10 11 0 2 -4 4 -10 4 -5 0 -10
-5 -10 -11z"/>
<path d="M2545 1670 c3 -5 8 -10 11 -10 2 0 4 5 4 10 0 6 -5 10 -11 10 -5 0
-7 -4 -4 -10z"/>
<path d="M2279 1663 c-1 -5 -1 -11 0 -15 0 -5 -4 -8 -10 -8 -5 0 -7 -5 -4 -10
10 -15 24 -2 22 20 -1 20 -6 27 -8 13z"/>
<path d="M2641 1656 c-10 -12 -8 -13 8 -9 12 3 21 9 21 14 0 14 -16 11 -29 -5z"/>
<path d="M2332 1644 c-7 -8 -8 -14 -3 -14 10 0 25 19 20 25 -2 1 -10 -3 -17
-11z"/>
<path d="M2383 1639 c-1 -10 2 -19 8 -19 11 0 12 27 1 34 -4 2 -9 -4 -9 -15z"/>
<path d="M2497 1631 c-3 -11 -1 -19 3 -16 5 3 10 -3 12 -12 3 -16 4 -16 10 -1
4 9 1 24 -6 34 -12 16 -13 15 -19 -5z"/>
<path d="M2385 1599 c-4 -6 -4 -13 -1 -16 3 -4 6 -1 6 6 0 7 5 9 12 5 7 -4 8
-3 4 4 -9 15 -13 15 -21 1z"/>
<path d="M2325 1580 c-4 -6 -11 -8 -16 -5 -5 4 -9 2 -9 -4 0 -17 18 -21 24 -5
3 8 11 12 17 8 8 -4 9 -3 5 4 -9 15 -13 15 -21 2z"/>
<path d="M8 1569 c11 -10 83 -19 77 -9 -3 4 -23 10 -45 12 -22 2 -36 1 -32 -3z"/>
<path d="M2405 1570 c-4 -6 -10 -8 -14 -6 -4 3 -8 -1 -8 -9 0 -8 4 -15 9 -15
4 0 8 5 8 11 0 5 4 8 9 5 5 -3 14 1 21 9 10 12 10 15 -3 15 -9 0 -19 -5 -22
-10z"/>
<path d="M2326 1541 c-4 -5 -2 -12 4 -16 6 -4 8 -10 6 -14 -7 -11 27 -10 42 2
9 7 9 13 1 23 -10 12 -14 11 -26 -3 -8 -10 -12 -13 -9 -6 8 14 -10 27 -18 14z"/>
<path d="M194 1422 c4 -6 28 -14 54 -18 26 -3 53 -12 61 -18 11 -9 13 -8 9 4
-2 8 -24 18 -47 22 -24 4 -52 10 -63 14 -13 4 -18 2 -14 -4z"/>
<path d="M13 1413 c9 -2 23 -2 30 0 6 3 -1 5 -18 5 -17 0 -22 -2 -12 -5z"/>
<path d="M65 1405 c22 -10 97 -23 89 -15 -5 5 -29 11 -54 15 -25 3 -40 3 -35
0z"/>
<path d="M13 1373 c9 -2 23 -2 30 0 6 3 -1 5 -18 5 -17 0 -22 -2 -12 -5z"/>
<path d="M125 1350 c-25 -6 -20 -8 30 -10 74 -3 113 -7 134 -15 8 -3 12 -3 8
1 -27 27 -113 39 -172 24z"/>
<path d="M278 1353 c6 -2 18 -2 25 0 6 3 1 5 -13 5 -14 0 -19 -2 -12 -5z"/>
<path d="M0 1315 c0 -8 2 -15 4 -15 2 0 6 7 10 15 3 8 1 15 -4 15 -6 0 -10 -7
-10 -15z"/>
<path d="M268 933 c7 -3 16 -2 19 1 4 3 -2 6 -13 5 -11 0 -14 -3 -6 -6z"/>
<path d="M2255 410 c-3 -6 1 -7 9 -4 18 7 21 14 7 14 -6 0 -13 -4 -16 -10z"/>
<path d="M2550 271 c0 -5 5 -13 10 -16 6 -3 10 -2 10 4 0 5 -4 13 -10 16 -5 3
-10 2 -10 -4z"/>
<path d="M395 200 c3 -5 8 -10 11 -10 2 0 4 5 4 10 0 6 -5 10 -11 10 -5 0 -7
-4 -4 -10z"/>
<path d="M476 185 c-3 -8 -1 -17 3 -20 5 -3 11 2 15 10 3 8 1 17 -3 20 -5 3
-11 -2 -15 -10z"/>
<path d="M2261 31 c21 -29 27 -31 81 -31 41 0 57 3 52 11 -5 8 -1 8 14 0 11
-6 60 -11 109 -11 81 1 86 2 58 14 -39 17 -81 24 -190 31 -49 3 -103 9 -119
12 l-28 5 23 -31z"/>
</g>
</svg>
